<?xml version="1.0" encoding="UTF-8"?>
<!DOCTYPE svg PUBLIC "-//W3C//DTD SVG 1.1//EN" "http://www.w3.org/Graphics/SVG/1.1/DTD/svg11.dtd">
<svg xmlns="http://www.w3.org/2000/svg" version="1.1" width="24px" height="24px" style="shape-rendering:geometricPrecision; text-rendering:geometricPrecision; image-rendering:optimizeQuality; fill-rule:evenodd; clip-rule:evenodd" xmlns:xlink="http://www.w3.org/1999/xlink">
<g><path style="opacity:0.102" fill="#615262" d="M 7.5,-0.5 C 10.1667,-0.5 12.8333,-0.5 15.5,-0.5C 17.0745,1.54747 18.0745,3.88081 18.5,6.5C 17.5655,7.56764 17.2322,8.90097 17.5,10.5C 16.5655,9.43236 16.2322,8.09903 16.5,6.5C 15.4023,1.1991 12.569,-0.134233 8,2.5C 7.20858,3.74499 6.70858,5.07833 6.5,6.5C 6.65668,7.87344 6.49001,9.20677 6,10.5C 5.78997,8.94186 5.28997,7.60853 4.5,6.5C 4.9255,3.88081 5.9255,1.54747 7.5,-0.5 Z M 16.5,6.5 C 13.1667,6.5 9.83333,6.5 6.5,6.5C 6.70858,5.07833 7.20858,3.74499 8,2.5C 12.569,-0.134233 15.4023,1.1991 16.5,6.5 Z"/></g>
<g><path style="opacity:0.937" fill="#fb532e" d="M 4.5,6.5 C 5.28997,7.60853 5.78997,8.94186 6,10.5C 6.49001,9.20677 6.65668,7.87344 6.5,6.5C 9.83333,6.5 13.1667,6.5 16.5,6.5C 16.2322,8.09903 16.5655,9.43236 17.5,10.5C 17.5,11.8333 17.5,13.1667 17.5,14.5C 16.5272,15.7914 15.5272,15.7914 14.5,14.5C 13.1667,15.5 13.1667,16.5 14.5,17.5C 15.4168,16.8728 16.4168,16.5394 17.5,16.5C 17.5,18.8333 17.5,21.1667 17.5,23.5C 12.1667,23.5 6.83333,23.5 1.5,23.5C 2.23521,18.2154 2.73521,12.882 3,7.5C 3.38258,6.94404 3.88258,6.61071 4.5,6.5 Z"/></g>
<g><path style="opacity:1" fill="#e81928" d="M 18.5,6.5 C 19.1174,6.61071 19.6174,6.94404 20,7.5C 20.2648,12.882 20.7648,18.2154 21.5,23.5C 20.1667,23.5 18.8333,23.5 17.5,23.5C 17.5,21.1667 17.5,18.8333 17.5,16.5C 17.5,15.8333 17.5,15.1667 17.5,14.5C 17.5,13.1667 17.5,11.8333 17.5,10.5C 17.2322,8.90097 17.5655,7.56764 18.5,6.5 Z"/></g>
<g><path style="opacity:1" fill="#feb09f" d="M 17.5,14.5 C 17.5,15.1667 17.5,15.8333 17.5,16.5C 16.4168,16.5394 15.4168,16.8728 14.5,17.5C 13.1667,16.5 13.1667,15.5 14.5,14.5C 15.5272,15.7914 16.5272,15.7914 17.5,14.5 Z"/></g>
<g><path style="opacity:1" fill="#fea28d" d="M 6.5,13.5 C 7.26791,14.2625 7.76791,15.2625 8,16.5C 8.33333,15.8333 8.66667,15.1667 9,14.5C 10.3509,14.4456 11.5176,14.9456 12.5,16C 10.6787,15.979 8.8454,16.8123 7,18.5C 6.5,18 6,17.5 5.5,17C 5.61907,15.8552 5.9524,14.6885 6.5,13.5 Z"/></g>
</svg>
