<?xml version="1.0" standalone="no"?>
<!DOCTYPE svg PUBLIC "-//W3C//DTD SVG 20010904//EN"
 "http://www.w3.org/TR/2001/REC-SVG-20010904/DTD/svg10.dtd">
<svg version="1.0" xmlns="http://www.w3.org/2000/svg"
 width="26.000000pt" height="26.000000pt" viewBox="0 0 26.000000 26.000000"
 preserveAspectRatio="xMidYMid meet">
<metadata>
Created by potrace 1.16, written by Peter Selinger 2001-2019
</metadata>
<g transform="translate(0.000000,26.000000) scale(0.100000,-0.100000)"
fill="#000000" stroke="none">
<path d="M0 231 c0 -25 3 -28 25 -23 17 3 27 -1 31 -12 8 -21 24 -21 24 0 0
13 7 15 43 9 23 -4 44 -11 45 -16 6 -16 52 -10 52 6 0 8 9 15 20 15 15 0 20 7
20 25 l0 25 -130 0 -130 0 0 -29z"/>
</g>
</svg>
